<?xml version="1.0" ?><svg viewBox="0 0 64 64" xmlns="http://www.w3.org/2000/svg"><title/><g id="hotels"><circle cx="24.583" cy="28.208" r="18.208" style="fill:#ffe8dc" transform="translate(-7.632 47.24) rotate(-79.501)"/><line style="fill:none;stroke:#9dc1e4;stroke-linecap:round;stroke-linejoin:round;stroke-width:2px" x1="31" x2="30.717" y1="12" y2="13.98"/><line style="fill:none;stroke:#9dc1e4;stroke-linecap:round;stroke-linejoin:round;stroke-width:2px;stroke-dasharray:3.3807098865509033,3.3807098865509033" x1="30.239" x2="29.522" y1="17.327" y2="22.347"/><line style="fill:none;stroke:#9dc1e4;stroke-linecap:round;stroke-linejoin:round;stroke-width:2px" x1="29.283" x2="29" y1="24.02" y2="26"/><line style="fill:none;stroke:#9dc1e4;stroke-linecap:round;stroke-linejoin:round;stroke-width:2px" x1="35" x2="35.283" y1="12" y2="13.98"/><line style="fill:none;stroke:#9dc1e4;stroke-linecap:round;stroke-linejoin:round;stroke-width:2px;stroke-dasharray:3.3807098865509033,3.3807098865509033" x1="35.761" x2="36.478" y1="17.327" y2="22.347"/><line style="fill:none;stroke:#9dc1e4;stroke-linecap:round;stroke-linejoin:round;stroke-width:2px" x1="36.717" x2="37" y1="24.02" y2="26"/><line style="fill:none;stroke:#9dc1e4;stroke-linecap:round;stroke-linejoin:round;stroke-width:2px" x1="39" x2="39.941" y1="12" y2="13.765"/><line style="fill:none;stroke:#9dc1e4;stroke-linecap:round;stroke-linejoin:round;stroke-width:2px;stroke-dasharray:4.333330154418945,4.333330154418945" x1="41.98" x2="45.039" y1="17.588" y2="23.324"/><line style="fill:none;stroke:#9dc1e4;stroke-linecap:round;stroke-linejoin:round;stroke-width:2px" x1="46.059" x2="47" y1="25.235" y2="27"/><line style="fill:none;stroke:#9dc1e4;stroke-linecap:round;stroke-linejoin:round;stroke-width:2px" x1="27" x2="26.059" y1="12" y2="13.765"/><line style="fill:none;stroke:#9dc1e4;stroke-linecap:round;stroke-linejoin:round;stroke-width:2px;stroke-dasharray:4.333330154418945,4.333330154418945" x1="24.02" x2="20.961" y1="17.588" y2="23.324"/><line style="fill:none;stroke:#9dc1e4;stroke-linecap:round;stroke-linejoin:round;stroke-width:2px" x1="19.941" x2="19" y1="25.235" y2="27"/><polygon points="28 8 38 8 33 4.369 28 8" style="fill:#9dc1e4;stroke:#4c241d;stroke-linecap:round;stroke-linejoin:round;stroke-width:2px"/><line style="fill:none;stroke:#4c241d;stroke-linecap:round;stroke-linejoin:round;stroke-width:2px" x1="33" x2="33" y1="2" y2="4"/><circle cx="5" cy="39" r="1" style="fill:#4c241d"/><line style="fill:none;stroke:#4c241d;stroke-linecap:round;stroke-linejoin:round;stroke-width:2px" x1="58" x2="58" y1="17.463" y2="18.878"/><line style="fill:none;stroke:#4c241d;stroke-linecap:round;stroke-linejoin:round;stroke-width:2px" x1="58" x2="58" y1="23.122" y2="24.537"/><line style="fill:none;stroke:#4c241d;stroke-linecap:round;stroke-linejoin:round;stroke-width:2px" x1="54.463" x2="55.878" y1="21" y2="21"/><line style="fill:none;stroke:#4c241d;stroke-linecap:round;stroke-linejoin:round;stroke-width:2px" x1="60.122" x2="61.537" y1="21" y2="21"/><rect height="32" style="fill:#ffe8dc;stroke:#4c241d;stroke-linecap:round;stroke-linejoin:round;stroke-width:2px" width="42" x="11" y="30"/><line style="fill:none;stroke:#4c241d;stroke-linecap:round;stroke-linejoin:round;stroke-width:2px" x1="19" x2="19" y1="44" y2="59"/><line style="fill:none;stroke:#4c241d;stroke-linecap:round;stroke-linejoin:round;stroke-width:2px" x1="45" x2="45" y1="44" y2="59"/><rect height="4" style="fill:#bf7e68;stroke:#4c241d;stroke-linecap:round;stroke-linejoin:round;stroke-width:2px" width="26" x="19" y="52"/><path d="M28,52H19V48h5a4,4,0,0,1,4,4Z" style="fill:#fc8c29;stroke:#4c241d;stroke-linecap:round;stroke-linejoin:round;stroke-width:2px"/><polygon points="32 39.612 34.8 41.084 34.266 37.966 36.531 35.757 33.4 35.302 32 32.465 30.6 35.302 27.469 35.757 29.734 37.966 29.199 41.084 32 39.612" style="fill:#ffce56;stroke:#4c241d;stroke-linecap:round;stroke-linejoin:round;stroke-width:2px"/><polygon points="44 39.612 46.8 41.084 46.266 37.966 48.531 35.757 45.4 35.302 44 32.465 42.6 35.302 39.469 35.757 41.734 37.966 41.199 41.084 44 39.612" style="fill:#ffce56;stroke:#4c241d;stroke-linecap:round;stroke-linejoin:round;stroke-width:2px"/><polygon points="20 39.612 22.8 41.084 22.266 37.966 24.531 35.757 21.4 35.302 20 32.465 18.6 35.302 15.469 35.757 17.734 37.966 17.199 41.084 20 39.612" style="fill:#ffce56;stroke:#4c241d;stroke-linecap:round;stroke-linejoin:round;stroke-width:2px"/><circle cx="12.5" cy="11.5" r="2.5" style="fill:none;stroke:#4c241d;stroke-linecap:round;stroke-linejoin:round;stroke-width:2px"/></g></svg>